<mxfile host="app.diagrams.net" modified="2023-05-20T09:58:51.766Z" agent="Mozilla/5.0 (Windows NT 10.0; Win64; x64) AppleWebKit/537.36 (KHTML, like Gecko) Chrome/113.0.0.0 Safari/537.36 Edg/113.0.1774.50" etag="tMY8d-eJu8pC3KGE1NwH" version="21.3.2" type="github">
  <diagram name="Σελίδα-1" id="d722_HOSetGY8IbsiXK8">
    <mxGraphModel dx="1118" dy="526" grid="1" gridSize="10" guides="1" tooltips="1" connect="1" arrows="1" fold="1" page="1" pageScale="1" pageWidth="3300" pageHeight="4681" math="0" shadow="0">
      <root>
        <mxCell id="0" />
        <mxCell id="1" parent="0" />
        <mxCell id="W4YdzC6T8s4nz27xlf9W-1" value="Επιστήμονες&amp;nbsp;" style="rounded=0;whiteSpace=wrap;html=1;" vertex="1" parent="1">
          <mxGeometry x="880" y="790" width="170" height="40" as="geometry" />
        </mxCell>
        <mxCell id="W4YdzC6T8s4nz27xlf9W-3" value="Χάρτες" style="ellipse;whiteSpace=wrap;html=1;align=center;" vertex="1" parent="1">
          <mxGeometry x="1320" y="640" width="160" height="80" as="geometry" />
        </mxCell>
        <mxCell id="W4YdzC6T8s4nz27xlf9W-4" value="" style="endArrow=none;html=1;rounded=0;exitX=1;exitY=0.5;exitDx=0;exitDy=0;entryX=0;entryY=1;entryDx=0;entryDy=0;" edge="1" parent="1" source="W4YdzC6T8s4nz27xlf9W-1" target="W4YdzC6T8s4nz27xlf9W-5">
          <mxGeometry width="50" height="50" relative="1" as="geometry">
            <mxPoint x="1080" y="710" as="sourcePoint" />
            <mxPoint x="1120" y="680" as="targetPoint" />
          </mxGeometry>
        </mxCell>
        <mxCell id="W4YdzC6T8s4nz27xlf9W-5" value="Όνομα χάρτη" style="text;html=1;strokeColor=none;fillColor=none;align=center;verticalAlign=middle;whiteSpace=wrap;rounded=0;" vertex="1" parent="1">
          <mxGeometry x="1185" y="710" width="60" height="30" as="geometry" />
        </mxCell>
        <mxCell id="W4YdzC6T8s4nz27xlf9W-6" value="" style="endArrow=classic;html=1;rounded=0;entryX=0;entryY=0.5;entryDx=0;entryDy=0;" edge="1" parent="1" target="W4YdzC6T8s4nz27xlf9W-3">
          <mxGeometry width="50" height="50" relative="1" as="geometry">
            <mxPoint x="1240" y="720" as="sourcePoint" />
            <mxPoint x="1260" y="640" as="targetPoint" />
          </mxGeometry>
        </mxCell>
        <mxCell id="W4YdzC6T8s4nz27xlf9W-7" value="Βιβλιοθήκη" style="ellipse;whiteSpace=wrap;html=1;align=center;" vertex="1" parent="1">
          <mxGeometry x="1320" y="770" width="160" height="80" as="geometry" />
        </mxCell>
        <mxCell id="W4YdzC6T8s4nz27xlf9W-8" value="" style="endArrow=none;html=1;rounded=0;exitX=1;exitY=0.5;exitDx=0;exitDy=0;entryX=0;entryY=0.5;entryDx=0;entryDy=0;" edge="1" parent="1" source="W4YdzC6T8s4nz27xlf9W-1" target="W4YdzC6T8s4nz27xlf9W-10">
          <mxGeometry width="50" height="50" relative="1" as="geometry">
            <mxPoint x="1030" y="700" as="sourcePoint" />
            <mxPoint x="1160" y="750" as="targetPoint" />
          </mxGeometry>
        </mxCell>
        <mxCell id="W4YdzC6T8s4nz27xlf9W-10" value="Όνομα βιβλίου" style="text;html=1;strokeColor=none;fillColor=none;align=center;verticalAlign=middle;whiteSpace=wrap;rounded=0;" vertex="1" parent="1">
          <mxGeometry x="1180" y="795" width="60" height="30" as="geometry" />
        </mxCell>
        <mxCell id="W4YdzC6T8s4nz27xlf9W-11" value="" style="endArrow=classic;html=1;rounded=0;exitX=1;exitY=0.5;exitDx=0;exitDy=0;entryX=0;entryY=0.5;entryDx=0;entryDy=0;" edge="1" parent="1" source="W4YdzC6T8s4nz27xlf9W-10" target="W4YdzC6T8s4nz27xlf9W-7">
          <mxGeometry width="50" height="50" relative="1" as="geometry">
            <mxPoint x="1250" y="800" as="sourcePoint" />
            <mxPoint x="1300" y="750" as="targetPoint" />
          </mxGeometry>
        </mxCell>
        <mxCell id="W4YdzC6T8s4nz27xlf9W-12" value="Τηλεδιάσκεψη" style="ellipse;whiteSpace=wrap;html=1;align=center;" vertex="1" parent="1">
          <mxGeometry x="1320" y="900" width="160" height="80" as="geometry" />
        </mxCell>
        <mxCell id="W4YdzC6T8s4nz27xlf9W-13" value="" style="endArrow=none;html=1;rounded=0;exitX=1;exitY=0.5;exitDx=0;exitDy=0;entryX=0.337;entryY=-0.068;entryDx=0;entryDy=0;entryPerimeter=0;" edge="1" parent="1" source="W4YdzC6T8s4nz27xlf9W-1" target="W4YdzC6T8s4nz27xlf9W-14">
          <mxGeometry width="50" height="50" relative="1" as="geometry">
            <mxPoint x="1110" y="880" as="sourcePoint" />
            <mxPoint x="1160" y="830" as="targetPoint" />
          </mxGeometry>
        </mxCell>
        <mxCell id="W4YdzC6T8s4nz27xlf9W-14" value="&#39;Όνομα Χρήστη&amp;nbsp;&lt;br&gt;Κωδικός" style="text;html=1;strokeColor=none;fillColor=none;align=center;verticalAlign=middle;whiteSpace=wrap;rounded=0;" vertex="1" parent="1">
          <mxGeometry x="1155" y="870" width="90" height="30" as="geometry" />
        </mxCell>
        <mxCell id="W4YdzC6T8s4nz27xlf9W-15" value="" style="endArrow=classic;html=1;rounded=0;entryX=-0.001;entryY=0.387;entryDx=0;entryDy=0;exitX=1;exitY=1;exitDx=0;exitDy=0;entryPerimeter=0;" edge="1" parent="1" source="W4YdzC6T8s4nz27xlf9W-14" target="W4YdzC6T8s4nz27xlf9W-12">
          <mxGeometry width="50" height="50" relative="1" as="geometry">
            <mxPoint x="1230" y="880" as="sourcePoint" />
            <mxPoint x="1300" y="910" as="targetPoint" />
          </mxGeometry>
        </mxCell>
      </root>
    </mxGraphModel>
  </diagram>
</mxfile>
